<svg width="140" height="37" xmlns="http://www.w3.org/2000/svg">
 <defs>
  <clipPath id="clip0_119539_79">
   <rect id="svg_1" x="0" y="10" fill="white" height="17" width="18"/>
  </clipPath>
  <clipPath id="clip1_119539_79">
   <rect id="svg_2" x="24" y="10" fill="white" height="17" width="18"/>
  </clipPath>
  <clipPath id="clip2_119539_79">
   <rect id="svg_3" x="48" y="10" fill="white" height="17" width="18"/>
  </clipPath>
  <clipPath id="clip3_119539_79">
   <rect id="svg_4" x="72" y="10" fill="white" height="17" width="18"/>
  </clipPath>
 </defs>
 <g>
  <title>background</title>
  <rect fill="none" id="canvas_background" height="402" width="582" y="-1" x="-1"/>
 </g>
 <g>
  <title>Layer 1</title>
  <g id="svg_5" clip-path="url(#clip0_119539_79)">
   <path id="svg_6" fill="#83B3D3" d="m9,10l2.1,6.5l6.9,0l-5.6,4l2.2,6.5l-5.6,-4l-5.6,4l2.2,-6.5l-5.6,-4l6.9,0l2.1,-6.5z"/>
  </g>
  <g id="svg_7" clip-path="url(#clip1_119539_79)">
   <path id="svg_8" fill="#83B3D3" d="m33,10l2.1,6.5l6.9,0l-5.6,4l2.2,6.5l-5.6,-4l-5.6,4l2.2,-6.5l-5.6,-4l6.9,0l2.1,-6.5z"/>
  </g>
  <g id="svg_9" clip-path="url(#clip2_119539_79)">
   <path id="svg_10" fill="#83B3D3" d="m57,10l2.1,6.5l6.9,0l-5.6,4l2.2,6.5l-5.6,-4l-5.6,4l2.2,-6.5l-5.6,-4l6.9,0l2.1,-6.5z"/>
  </g>
  <path id="svg_12" fill="#83B3D3" d="m81,10l2.1,6.5l6.9,0l-5.6,4l2.2,6.5l-5.6,-4l-5.6,4l2.2,-6.5l-5.6,-4l6.9,0l2.1,-6.5z"/>
  <path id="svg_13" fill="#83B3D3" d="m104.281595,10l2.1,6.5l6.9,0l-5.6,4l2.2,6.5l-5.6,-4l-5.6,4l2.2,-6.5l-5.6,-4l6.9,0l2.1,-6.5z"/>
 </g>
</svg>